<svg width="459" height="399" viewBox="0 0 459 399" fill="none" xmlns="http://www.w3.org/2000/svg">
<path d="M55 1H1L230 397L256.5 350.5L159 181.5H185.5L269.5 327L296.5 280.5L135 1H81L159 135H132L55 1Z" fill="white"/>
<path d="M293 1H161.5L228 114.5L293 1Z" fill="white"/>
<path d="M323 84H269.5L239 136L309.5 258L458 1H404L309.5 165L292.5 136L323 84Z" fill="white"/>
<path d="M55 1H1L230 397L256.5 350.5L159 181.5H185.5L269.5 327L296.5 280.5L135 1H81L159 135H132L55 1Z" stroke="white"/>
<path d="M293 1H161.5L228 114.5L293 1Z" stroke="white"/>
<path d="M323 84H269.5L239 136L309.5 258L458 1H404L309.5 165L292.5 136L323 84Z" stroke="white"/>
</svg>
